<?xml version="1.0" encoding="UTF-8"?>
<svg xmlns="http://www.w3.org/2000/svg" xmlns:xlink="http://www.w3.org/1999/xlink" width="200px" height="200px" viewBox="0 0 200 200" version="1.1">
<g id="surface1">
<path style=" stroke:none;fill-rule:nonzero;fill:rgb(73.333333%,73.333333%,73.333333%);fill-opacity:1;" d="M 186.851562 40.378906 C 195.046875 29.386719 199.976562 17.980469 200 9.828125 C 200.097656 7.640625 199.558594 5.472656 198.453125 3.585938 C 197.96875 2.769531 197.289062 2.085938 196.480469 1.589844 C 194.578125 0.441406 192.375 -0.113281 190.15625 0 C 182.023438 0 170.613281 4.925781 159.621094 13.144531 C 148.84375 21.992188 138.789062 31.683594 129.546875 42.125 C 127.460938 44.324219 125.257812 46.636719 122.945312 49.0625 L 99.121094 41.921875 L 99.191406 41.851562 C 101.242188 39.765625 101.234375 36.417969 99.171875 34.339844 L 94.875 30.035156 C 93.871094 29.027344 92.507812 28.460938 91.082031 28.460938 C 89.671875 28.457031 88.320312 29.019531 87.328125 30.023438 L 80.890625 36.464844 L 77.476562 35.4375 C 79.128906 33.320312 78.945312 30.300781 77.050781 28.394531 L 72.726562 24.074219 C 71.71875 23.074219 70.359375 22.511719 68.9375 22.515625 C 67.527344 22.507812 66.171875 23.070312 65.183594 24.078125 L 59.273438 29.984375 L 35.050781 22.730469 C 34.488281 22.5625 33.90625 22.480469 33.320312 22.484375 C 31.648438 22.480469 30.039062 23.128906 28.839844 24.296875 L 20.324219 32.8125 C 19.378906 33.738281 18.839844 35.003906 18.824219 36.328125 C 18.800781 38.160156 19.804688 39.851562 21.425781 40.710938 L 72.367188 69.171875 C 72.804688 69.449219 73.21875 69.761719 73.601562 70.109375 L 88.125 84.628906 C 74.542969 98.941406 62.441406 112.800781 53.007812 124.859375 C 52.128906 125.980469 51.300781 127.078125 50.476562 128.15625 L 11.0625 124.578125 C 10.835938 124.546875 10.609375 124.535156 10.382812 124.535156 C 8.558594 124.570312 6.816406 125.292969 5.5 126.554688 L 1.53125 130.519531 C 0.570312 131.4375 0.0234375 132.703125 0.0078125 134.03125 C 0 135.949219 1.121094 137.6875 2.871094 138.472656 L 30.597656 151.640625 C 30.976562 151.859375 31.332031 152.113281 31.660156 152.402344 L 33.960938 154.683594 C 33.304688 156.390625 32.929688 158.191406 32.851562 160.015625 C 32.773438 161.914062 33.472656 163.761719 34.785156 165.136719 L 34.886719 165.226562 L 34.914062 165.242188 C 36.285156 166.542969 38.125 167.230469 40.011719 167.15625 C 41.820312 167.074219 43.605469 166.703125 45.296875 166.054688 L 47.632812 168.386719 C 47.90625 168.703125 48.148438 169.046875 48.359375 169.410156 L 61.496094 197.070312 C 62.277344 198.820312 64.003906 199.953125 65.917969 199.976562 L 65.945312 199.976562 C 67.261719 199.972656 68.523438 199.441406 69.449219 198.5 L 73.519531 194.402344 C 74.746094 193.078125 75.441406 191.339844 75.460938 189.535156 C 75.460938 189.308594 75.460938 189.132812 75.445312 189.042969 L 71.855469 149.496094 C 72.9375 148.683594 74.027344 147.84375 75.148438 146.972656 C 87.226562 137.527344 101.101562 125.414062 115.375 111.847656 L 129.90625 126.394531 C 130.265625 126.777344 130.582031 127.195312 130.855469 127.640625 L 159.261719 178.488281 C 159.996094 179.894531 161.359375 180.863281 162.929688 181.09375 C 164.496094 181.324219 166.082031 180.789062 167.191406 179.65625 L 175.769531 171.085938 C 176.90625 169.875 177.53125 168.273438 177.523438 166.613281 C 177.523438 166.046875 177.445312 165.480469 177.289062 164.9375 L 170.03125 140.707031 L 175.9375 134.789062 C 178.007812 132.707031 178.007812 129.34375 175.9375 127.261719 L 171.605469 122.933594 C 169.707031 121.03125 166.6875 120.839844 164.5625 122.492188 L 163.539062 119.097656 L 169.984375 112.65625 C 170.976562 111.648438 171.535156 110.289062 171.539062 108.875 C 171.542969 107.464844 170.984375 106.113281 169.984375 105.117188 L 165.675781 100.808594 C 164.671875 99.800781 163.308594 99.234375 161.890625 99.234375 C 160.46875 99.234375 159.105469 99.800781 158.101562 100.808594 L 158.058594 100.851562 L 150.925781 77.027344 C 153.386719 74.679688 155.734375 72.449219 157.96875 70.335938 C 170.890625 58.089844 180.226562 49.234375 186.851562 40.378906 Z M 186.851562 40.378906 "/>
</g>
</svg>
